<?xml version="1.0" encoding="UTF-8" standalone="no"?>
<!-- Created with Inkscape (http://www.inkscape.org/) -->

<svg
   version="1.1"
   id="svg1"
   width="1024"
   height="1024"
   viewBox="0 0 1024 1024"
   sodipodi:docname="LEAF.svg"
   inkscape:export-filename="fdxwlu2ktof93n5umefd.png"
   inkscape:export-xdpi="96"
   inkscape:export-ydpi="96"
   inkscape:version="1.4 (86a8ad7, 2024-10-11)"
   xmlns:inkscape="http://www.inkscape.org/namespaces/inkscape"
   xmlns:sodipodi="http://sodipodi.sourceforge.net/DTD/sodipodi-0.dtd"
   xmlns="http://www.w3.org/2000/svg"
   xmlns:svg="http://www.w3.org/2000/svg">
  <defs
     id="defs1" />
  <sodipodi:namedview
     id="namedview1"
     pagecolor="#505050"
     bordercolor="#ffffff"
     borderopacity="1"
     inkscape:showpageshadow="0"
     inkscape:pageopacity="0"
     inkscape:pagecheckerboard="1"
     inkscape:deskcolor="#505050"
     showgrid="false"
     inkscape:zoom="1"
     inkscape:cx="265.99999"
     inkscape:cy="663.49998"
     inkscape:window-width="3840"
     inkscape:window-height="2054"
     inkscape:window-x="-11"
     inkscape:window-y="-11"
     inkscape:window-maximized="1"
     inkscape:current-layer="svg1"
     inkscape:export-bgcolor="#ffffffff" />
  <rect
     style="fill:#ffffff;fill-opacity:1;stroke:#000000;stroke-width:0.48;stroke-miterlimit:4.1;stroke-dasharray:none;stroke-opacity:1"
     id="rect10"
     width="1026.719"
     height="1026.719"
     x="-1.3594971"
     y="-1.3594971" />
  <g
     inkscape:groupmode="layer"
     inkscape:label="Image"
     id="g1" />
  <g
     id="g3"
     transform="translate(3.9575809e-8,16.454721)">
    <g
       id="g9"
       transform="translate(-10.569317,-6.811722)">
      <path
         style="fill:#eddac1;fill-opacity:1"
         d="m 253.8843,665.17686 c 0,0 196.33719,-40.0573 307.48209,-172.64132 l 238.08705,32.72286 c 0,0 -39.61528,135.16626 -236.25344,230.61157 -21.43002,10.40182 2.37168,1.29708 -34.95865,9.3166 -39.66841,8.5218 -38.10361,-3.39263 -38.10361,-3.39263 0,0 -193.3752,-65.02259 -236.25344,-96.61708 z"
         id="path4"
         sodipodi:nodetypes="cccsscc" />
      <g
         id="g8">
        <path
           style="fill:#8a6200;fill-opacity:1"
           d="m 402.82975,610.45069 38.92893,-90.83416 -1.12838,59.23967 z"
           id="path3" />
        <path
           style="fill:#004b00;fill-opacity:1"
           d="m 453.04242,491.40716 c 0,0 -7.33443,-126.37796 12.41213,-185.05344 19.74655,-58.67548 48.52011,-115.09422 96.47603,-135.96915 47.95592,-20.87493 90.26997,-45.69917 116.78678,-63.75317 26.5168,-18.05399 36.10798,-44.006607 39.49311,-31.594485 3.38512,12.412121 9.59118,123.557025 1.69256,151.202205 -7.89862,27.64518 -77.29366,140.48264 -93.09091,150.07383 -15.79724,9.59118 -104.93884,56.98292 -124.12121,72.21598 -19.18237,15.23305 -49.64849,42.87823 -49.64849,42.87823 z"
           id="path2" />
      </g>
      <path
         style="fill:#000000"
         d="M 497.39862,770.80244 C 469.84498,762.30007 384.14654,731.06229 310.89863,702.82166 243.4959,676.83464 237.88544,674.11838 237.9036,667.48158 c 0.0128,-4.68649 4.0156,-7.11935 16.99503,-10.32942 31.8747,-7.88325 68.75085,-20.91792 97.70985,-34.53766 17.00715,-7.99865 21.29014,-7.96738 21.29014,0.15544 0,8.81687 -61.49509,35.49367 -103.43618,44.87098 -3.19506,0.71436 -3.07886,0.77114 23.93619,11.69586 46.52683,18.81517 194.51547,72.92793 211.4349,77.31219 18.11758,4.69474 30.24739,1.07283 78.0651,-23.30991 73.90316,-37.68399 118.77711,-71.67709 160.33887,-121.46056 31.27051,-37.45643 54.78293,-81.02486 45.43381,-84.18871 -0.69997,-0.23688 -24.67268,-3.81588 -53.27268,-7.95333 -28.6,-4.13745 -66.625,-9.78767 -84.5,-12.55605 -93.54096,-14.48709 -82.1078,-15.1776 -99.10274,5.98543 -28.10463,34.99744 -75.04941,73.06169 -83.37744,67.60495 -5.91148,-3.87335 -2.24598,-9.85981 12.89854,-21.06577 24.39954,-18.05407 43.21006,-36.01871 60.77201,-58.03918 18.80875,-23.58379 20.59822,-24.05676 64.80963,-17.12979 12.925,2.02506 32.275,5.04218 43,6.7047 10.725,1.66253 26.475,4.11976 35,5.46053 8.525,1.34077 32.6,4.92546 53.5,7.966 67.23775,9.78174 67.91967,10.04813 67.83235,26.49856 -0.24712,46.55522 -84.8552,140.8979 -172.33235,192.16009 -19.42168,11.38124 -20.95616,12.22973 -40,22.1181 -57.0163,29.60526 -71.516,33.37643 -97.50001,25.35841 z m 94.75001,-95.85709 c -4.79959,-2.31476 -2.94631,-3.36947 13.75,-7.82527 37.42092,-9.98663 49.72398,-31.08795 23.7656,-40.76103 -30.16453,-11.24045 -74.47524,-5.12621 -143.14915,19.75254 -52.63971,19.06999 -71.75998,23.46757 -87.61646,20.15145 -15.58484,-3.25931 -10.03418,-9.22506 9.75676,-10.48639 16.13413,-1.02827 27.21569,-4.25428 64.74324,-18.8477 71.19415,-27.68544 114.24295,-34.83657 152.07797,-25.2627 36.92379,9.34328 42.21804,35.71178 10.85991,54.08887 -12.47873,7.31302 -37.35324,12.48644 -44.18787,9.19023 z M 383.37064,647.41584 c 2.48095,-13.39408 15.93636,-55.54857 23.54047,-73.75 2.29777,-5.5 5.19682,-12.475 6.44233,-15.5 1.24552,-3.025 5.64431,-13.15 9.77509,-22.5 24.05563,-54.44977 25.00908,-59.37372 24.09174,-124.41734 -1.91769,-135.97285 34.72617,-205.5669 139.70536,-265.32851 2.48985,-1.4174 17.01982,-8.93881 32.28881,-16.71426 15.269,-7.77544 31.63392,-16.36528 36.3665,-19.08853 4.73257,-2.72325 8.78871,-4.95136 9.01364,-4.95136 3.51134,0 29.59136,-20.405038 40.80405,-31.925128 15.84509,-16.27949 18.52404,-14.40104 24.55961,17.22095 24.46312,128.168808 -28.13105,245.451428 -142.55961,317.901508 -12.09412,7.65735 -20.69988,12.77101 -50.00001,29.71069 -35.8413,20.72142 -49.95981,32.07802 -65.15757,52.41118 -13.41297,17.94529 -13.71327,18.71427 -15.88684,40.6808 -4.43924,44.86402 -5.84132,48.44336 -26.74364,68.27327 -15.37156,14.58291 -23.47945,23.92551 -33.77032,38.91306 -8.52557,12.41657 -13.8009,16.251 -12.46961,9.06367 z m 47.52143,-74.59897 c 2.9595,-6.02515 5.33479,-15.43703 6.28431,-24.90103 0.46434,-4.62812 -0.51811,-6.50676 -1.56886,-3 -0.2884,0.9625 -4.35764,10.075 -9.04276,20.25 -12.73377,27.65482 -13.11215,29.18265 -5.11441,20.65103 3.53122,-3.76693 7.77999,-9.61693 9.44172,-13 z M 494.39862,446.9796 c 8.89259,-7.08724 16.5026,-11.96498 39.5,-25.31811 89.5377,-51.98883 127.07975,-88.68192 159.60492,-155.99565 21.23163,-43.94073 32.28956,-123.69254 22.03881,-158.94779 -0.15157,-0.52128 -2.75457,4.20372 -5.78444,10.5 -14.05015,29.19718 -36.90767,59.9452 -71.32582,95.94779 -19.12908,20.00968 -18.98281,18.95613 -1.40979,10.15448 8.45698,-4.23577 21.67633,-10.34803 29.37633,-13.5828 7.7,-3.23476 18.68195,-8.06725 24.40434,-10.73886 10.77964,-5.0327 11.93771,-5.27472 10.26264,-2.14482 -3.5393,6.61325 -22.31377,19.48068 -42.66698,29.24261 -50.08814,24.02359 -64.70676,34.46453 -86.64664,61.8849 -7.13284,8.91461 -7.13382,8.92423 -0.5245,5.19416 13.53442,-7.63835 34.95273,-13.65695 74.67114,-20.98278 15.125,-2.78972 28.0625,-5.2729 28.75,-5.51817 2.40607,-0.85839 1.22085,1.41139 -2,3.83014 -8.01157,6.01643 -21.80349,11.20828 -53.75,20.23373 -55.35491,15.63875 -77.62915,32.20766 -98.37523,73.17741 -3.24356,6.40545 -2.80638,6.4977 3.58037,0.75547 16.86215,-15.16053 37.76448,-22.68835 89.07252,-32.07884 27.72957,-5.07512 15.11079,3.25344 -24.95513,16.4707 -63.16434,20.83714 -81.30989,36.45023 -104.13631,89.60267 -5.19952,12.10734 -11.18623,26.71003 -11.18623,27.28527 0,0.304 3.2625,-2.58498 7.25,-6.41995 3.9875,-3.83497 10.4,-9.48317 14.25,-12.55156 z m -25.68084,-13.31376 c 2.18451,-5.5 6.91793,-16.57344 10.5187,-24.60765 10.02457,-22.36725 10.6556,-25.70603 10.48795,-55.49229 -0.15509,-27.55357 1.53969,-40.26761 6.73404,-50.51817 3.84157,-7.58098 4.42804,-6.31321 4.56496,9.86811 0.42242,49.92116 0.80751,51.79 7.76731,37.69517 11.94607,-24.19291 13.16251,-28.07309 18.63606,-59.44517 6.17422,-35.38799 14.37425,-58.8996 24.51014,-70.2769 5.18306,-5.81788 5.53291,-4.63156 2.55237,8.65497 -4.57959,20.41468 -13.59069,67.14422 -13.59069,70.47824 0,1.85909 1.01384,0.88192 4.65856,-4.49004 9.461,-13.94459 24.4815,-32.16136 39.9955,-48.50626 9.89993,-10.43017 12.01608,-14.41464 17.22314,-32.42936 6.74018,-23.31884 12.73912,-35.27901 23.19042,-46.23503 5.98992,-6.27919 6.2658,-5.04346 1.85396,8.30438 -2.18149,6.6 -5.485,17.625 -7.34115,24.5 -1.85615,6.875 -3.68904,13.4 -4.07309,14.5 -3.06284,8.77255 58.49031,-67.85916 70.72202,-88.04666 15.55331,-25.66957 16.7191,-29.040498 7.84498,-22.68413 -14.16687,10.14749 -33.92279,20.98191 -76.85544,42.14862 -104.78121,51.65935 -148.15692,113.44046 -155.21891,221.08217 -1.1518,17.55615 -0.30008,77.72112 1.08005,76.29363 0.42201,-0.4365 2.55461,-5.29363 4.73912,-10.79363 z"
         id="path1" />
    </g>
    <text
       xml:space="preserve"
       style="font-style:normal;font-variant:normal;font-weight:normal;font-stretch:normal;font-size:92.9121px;line-height:0px;font-family:'Victor Mono';-inkscape-font-specification:'Victor Mono';text-align:start;letter-spacing:5.80701px;word-spacing:-0.40649px;writing-mode:lr-tb;direction:ltr;text-anchor:start;fill:#eddac1;fill-opacity:1;stroke:#000000;stroke-width:0.96;stroke-miterlimit:4.1;stroke-dasharray:none;stroke-opacity:1"
       x="293.98404"
       y="867.43793"
       id="text5"><tspan
         sodipodi:role="line"
         id="tspan5"
         x="293.98404"
         y="867.43793"
         style="stroke:#000000;stroke-width:0.96;stroke-miterlimit:4.1;stroke-dasharray:none;stroke-opacity:1">L.E.A.F.</tspan><tspan
         sodipodi:role="line"
         x="293.98404"
         y="867.43793"
         style="stroke:#000000;stroke-width:0.96;stroke-miterlimit:4.1;stroke-dasharray:none;stroke-opacity:1"
         id="tspan7" /><tspan
         sodipodi:role="line"
         x="293.98404"
         y="867.43793"
         id="tspan6"
         style="stroke:#000000;stroke-width:0.96;stroke-miterlimit:4.1;stroke-dasharray:none;stroke-opacity:1" /></text>
    <g
       id="g2"
       transform="translate(-1.9200021,16)">
      <text
         xml:space="preserve"
         style="font-style:normal;font-variant:normal;font-weight:normal;font-stretch:normal;font-size:34.6486px;line-height:0px;font-family:'Victor Mono';-inkscape-font-specification:'Victor Mono';text-align:start;letter-spacing:2.16554px;word-spacing:-0.151587px;writing-mode:lr-tb;direction:ltr;text-anchor:start;fill:#eddac1;fill-opacity:1;stroke:#000000;stroke-width:0.426603;stroke-miterlimit:4.1;stroke-dasharray:none;stroke-opacity:1"
         x="61.648373"
         y="912.11176"
         id="text8"><tspan
           sodipodi:role="line"
           id="tspan8"
           x="61.648373"
           y="912.11176"
           style="stroke:#000000;stroke-width:0.426603;stroke-miterlimit:4.1;stroke-dasharray:none;stroke-opacity:1">Literature Environment &amp; Archival Framework</tspan></text>
      <rect
         style="fill:#f0dcc8;stroke:#000000;stroke-width:0.48;stroke-miterlimit:4.1"
         id="rect1"
         width="13.125"
         height="2.25"
         x="64.875"
         y="916.25" />
      <rect
         style="fill:#f0dcc8;stroke:#000000;stroke-width:0.48;stroke-miterlimit:4.1"
         id="rect1-6"
         width="13.125"
         height="2.25"
         x="590.48999"
         y="916.23999" />
      <rect
         style="fill:#f0dcc8;stroke:#000000;stroke-width:0.48;stroke-miterlimit:4.1"
         id="rect1-1"
         width="13.125"
         height="2.25"
         x="780.17749"
         y="916.23999" />
      <rect
         style="fill:#f0dcc8;stroke:#000000;stroke-width:0.48;stroke-miterlimit:4.1"
         id="rect1-23"
         width="13.125"
         height="2.25"
         x="296.48999"
         y="916.23999" />
    </g>
  </g>
</svg>
